<svg width="140" height="47" viewBox="0 0 140 47" fill="none" xmlns="http://www.w3.org/2000/svg">
<path d="M9.59569 37.9192L18.8187 6.97694C19.7533 3.84135 23.7151 3.51677 25.618 6.42982L41.6384 30.9256C42.4301 31.9448 42.6815 33.2834 42.3133 34.5204C41.9452 35.7574 41.0028 36.7408 39.7826 37.1613L14.5392 43.6031C11.543 44.3679 8.66113 41.0548 9.59569 37.9192Z" fill="url(#paint0_linear_0_3)"/>
<path d="M23.1853 44.243L7.52751 13.6222C6.79775 12.1939 6.9297 10.4772 7.86915 9.17721C8.8086 7.87723 10.3972 7.21315 11.9823 7.45777L41.0001 11.9363C42.3554 12.1455 43.5278 12.9927 44.1518 14.2138C44.7758 15.4348 44.7756 16.8813 44.1512 18.1022L30.7838 44.2444C30.052 45.6685 28.5852 46.5637 26.9841 46.5634C25.383 46.5631 23.9165 45.6673 23.1853 44.243Z" fill="url(#paint1_linear_0_3)"/>
<path d="M39.3899 23.6601C39.8209 16.9485 35.0145 11.0116 28.3678 9.98575C26.606 9.71383 24.7971 9.8132 23.0767 10.2803L20.4026 11.0064C13.9723 12.7524 10.7776 19.9727 13.8103 25.9056C14.601 27.4524 15.7634 28.7787 17.1932 29.7654L31.6149 39.717C32.2505 40.1507 33.063 39.7877 33.4133 39.1026L37.8558 30.4149C38.6859 28.7916 39.1745 27.0153 39.2913 25.1958L39.3899 23.6601Z" fill="white"/>
<path d="M136.363 22.7259C138.22 22.7259 139.726 21.2203 139.726 19.363C139.726 17.5056 138.22 16 136.363 16C134.506 16 133 17.5056 133 19.363C133 21.2203 134.506 22.7259 136.363 22.7259Z" fill="#001A49"/>
<defs>
<linearGradient id="paint0_linear_0_3" x1="-0.848534" y1="31.7156" x2="28.2818" y2="39.7075" gradientUnits="userSpaceOnUse">
<stop stop-color="#FFD7A9"/>
<stop offset="1" stop-color="#FFAE70"/>
</linearGradient>
<linearGradient id="paint1_linear_0_3" x1="28.2385" y1="55.8198" x2="54.793" y2="29.5415" gradientUnits="userSpaceOnUse">
<stop stop-color="#02BAD3"/>
<stop offset="1" stop-color="#02CBE7"/>
</linearGradient>
</defs>
</svg>
