<svg width="210" height="95" viewBox="0 0 210 95" fill="none" xmlns="http://www.w3.org/2000/svg">
<path d="M24.5957 38.9192L33.8187 7.97694C34.7533 4.84135 38.7151 4.51677 40.618 7.42982L56.6384 31.9256C57.4301 32.9448 57.6815 34.2834 57.3133 35.5204C56.9452 36.7574 56.0028 37.7408 54.7826 38.1613L29.5392 44.6031C26.543 45.3679 23.6611 42.0548 24.5957 38.9192Z" fill="url(#paint0_linear_0_3)"/>
<path d="M38.1853 45.243L22.5275 14.6222C21.7978 13.1939 21.9297 11.4772 22.8692 10.1772C23.8086 8.87723 25.3972 8.21315 26.9823 8.45777L56.0001 12.9363C57.3554 13.1455 58.5278 13.9927 59.1518 15.2138C59.7758 16.4348 59.7756 17.8813 59.1512 19.1022L45.7838 45.2444C45.052 46.6685 43.5852 47.5637 41.9841 47.5634C40.383 47.5631 38.9165 46.6673 38.1853 45.243Z" fill="url(#paint1_linear_0_3)"/>
<path d="M54.3899 24.6601C54.8209 17.9485 50.0145 12.0116 43.3678 10.9858C41.606 10.7138 39.7971 10.8132 38.0767 11.2803L35.4026 12.0064C28.9723 13.7524 25.7776 20.9727 28.8103 26.9056C29.601 28.4525 30.7634 29.7787 32.1932 30.7654L46.6149 40.717C47.2505 41.1507 48.063 40.7877 48.4133 40.1026L52.8558 31.4149C53.6859 29.7916 54.1745 28.0153 54.2913 26.1958L54.3899 24.6601Z" fill="white"/>
<path d="M151.363 23.7259C153.22 23.7259 154.726 22.2203 154.726 20.363C154.726 18.5056 153.22 17 151.363 17C149.506 17 148 18.5056 148 20.363C148 22.2203 149.506 23.7259 151.363 23.7259Z" fill="#001A49"/>
<path d="M82.3656 23.896C83.3896 23.896 84.2936 24.104 85.0776 24.52C85.8776 24.92 86.5016 25.544 86.9496 26.392C87.4136 27.224 87.6456 28.296 87.6456 29.608V37H83.9016V30.184C83.9016 29.144 83.6856 28.376 83.2536 27.88C82.8216 27.384 82.2136 27.136 81.4296 27.136C80.8856 27.136 80.3976 27.264 79.9656 27.52C79.5336 27.76 79.1976 28.128 78.9576 28.624C78.7176 29.12 78.5976 29.752 78.5976 30.52V37H74.8536V30.184C74.8536 29.144 74.6376 28.376 74.2056 27.88C73.7896 27.384 73.1896 27.136 72.4056 27.136C71.8616 27.136 71.3736 27.264 70.9416 27.52C70.5096 27.76 70.1736 28.128 69.9336 28.624C69.6936 29.12 69.5736 29.752 69.5736 30.52V37H65.8296V24.088H69.4056V27.616L68.7336 26.584C69.1816 25.704 69.8136 25.04 70.6296 24.592C71.4616 24.128 72.4056 23.896 73.4616 23.896C74.6456 23.896 75.6776 24.2 76.5576 24.808C77.4536 25.4 78.0456 26.312 78.3336 27.544L77.0136 27.184C77.4456 26.176 78.1336 25.376 79.0776 24.784C80.0376 24.192 81.1336 23.896 82.3656 23.896ZM98.8494 23.896C99.8734 23.896 100.785 24.104 101.585 24.52C102.401 24.92 103.041 25.544 103.505 26.392C103.969 27.224 104.201 28.296 104.201 29.608V37H100.457V30.184C100.457 29.144 100.225 28.376 99.7614 27.88C99.3134 27.384 98.6734 27.136 97.8414 27.136C97.2494 27.136 96.7134 27.264 96.2334 27.52C95.7694 27.76 95.4014 28.136 95.1294 28.648C94.8734 29.16 94.7454 29.816 94.7454 30.616V37H91.0014V24.088H94.5774V27.664L93.9054 26.584C94.3694 25.72 95.0334 25.056 95.8974 24.592C96.7614 24.128 97.7454 23.896 98.8494 23.896ZM107.595 37V24.088H111.339V37H107.595ZM109.467 22.288C108.779 22.288 108.219 22.088 107.787 21.688C107.355 21.288 107.139 20.792 107.139 20.2C107.139 19.608 107.355 19.112 107.787 18.712C108.219 18.312 108.779 18.112 109.467 18.112C110.155 18.112 110.715 18.304 111.147 18.688C111.579 19.056 111.795 19.536 111.795 20.128C111.795 20.752 111.579 21.272 111.147 21.688C110.731 22.088 110.171 22.288 109.467 22.288ZM117.766 37L113.11 24.088H116.638L120.502 35.2H118.822L122.854 24.088H126.022L129.934 35.2H128.254L132.238 24.088H135.55L130.87 37H127.246L123.814 27.472H124.918L121.366 37H117.766ZM137.291 37V24.088H140.867V27.736L140.363 26.68C140.747 25.768 141.363 25.08 142.211 24.616C143.059 24.136 144.091 23.896 145.307 23.896V27.352C145.147 27.336 145.003 27.328 144.875 27.328C144.747 27.312 144.611 27.304 144.467 27.304C143.443 27.304 142.611 27.6 141.971 28.192C141.347 28.768 141.035 29.672 141.035 30.904V37H137.291Z" fill="black"/>
<defs>
<linearGradient id="paint0_linear_0_3" x1="14.1515" y1="32.7156" x2="43.2818" y2="40.7075" gradientUnits="userSpaceOnUse">
<stop stop-color="#FFD7A9"/>
<stop offset="1" stop-color="#FFAE70"/>
</linearGradient>
<linearGradient id="paint1_linear_0_3" x1="43.2385" y1="56.8198" x2="69.793" y2="30.5415" gradientUnits="userSpaceOnUse">
<stop stop-color="#02BAD3"/>
<stop offset="1" stop-color="#02CBE7"/>
</linearGradient>
</defs>
</svg>
